<?xml version="1.0" encoding="UTF-8" standalone="no"?>
<!-- Generator: Adobe Illustrator 15.1.0, SVG Export Plug-In . SVG Version: 6.00 Build 0)  -->

<svg
   xmlns:dc="http://purl.org/dc/elements/1.1/"
   xmlns:cc="http://creativecommons.org/ns#"
   xmlns:rdf="http://www.w3.org/1999/02/22-rdf-syntax-ns#"
   xmlns:svg="http://www.w3.org/2000/svg"
   xmlns="http://www.w3.org/2000/svg"
   xmlns:sodipodi="http://sodipodi.sourceforge.net/DTD/sodipodi-0.dtd"
   xmlns:inkscape="http://www.inkscape.org/namespaces/inkscape"
   version="1.1"
   id="Layer"
   x="0px"
   y="0px"
   viewBox="0 0 190 50"
   enable-background="new 0 0 190 60"
   xml:space="preserve"
   inkscape:version="0.48.3.1 r9886"
   width="100%"
   height="100%"
   sodipodi:docname="logo2.svg"><metadata
   id="metadata214"><rdf:RDF><cc:Work
       rdf:about=""><dc:format>image/svg+xml</dc:format><dc:type
         rdf:resource="http://purl.org/dc/dcmitype/StillImage" /><dc:title></dc:title></cc:Work></rdf:RDF></metadata><defs
   id="defs212" /><sodipodi:namedview
   pagecolor="#ffffff"
   bordercolor="#666666"
   borderopacity="1"
   objecttolerance="10"
   gridtolerance="10"
   guidetolerance="10"
   inkscape:pageopacity="0"
   inkscape:pageshadow="2"
   inkscape:window-width="1680"
   inkscape:window-height="991"
   id="namedview210"
   showgrid="false"
   inkscape:zoom="4.4618155"
   inkscape:cx="160.11565"
   inkscape:cy="-3.3900881"
   inkscape:window-x="0"
   inkscape:window-y="27"
   inkscape:window-maximized="1"
   inkscape:current-layer="Layer" />
<linearGradient
   id="SVGID_1_"
   gradientUnits="userSpaceOnUse"
   x1="71.362801"
   y1="2.0366001"
   x2="71.362801"
   y2="46.828602"
   gradientTransform="translate(0,-1.4832874)">
	<stop
   offset="0"
   style="stop-color:#FBFBFB"
   id="stop4" />
	<stop
   offset="1"
   style="stop-color:#D6D6D6"
   id="stop6" />
</linearGradient>
<path
   d="M 82.602,6.9567126 H 74.991 V 45.344713 H 67.735 V 6.9567126 H 60.124 V 0.55371259 H 77.25 c 0,0 5.038,0.176 5.352,6.40300001 z"
   id="path8"
   inkscape:connector-curvature="0"
   style="fill:url(#SVGID_1_)" />
<linearGradient
   id="SVGID_2_"
   gradientUnits="userSpaceOnUse"
   x1="95.574699"
   y1="2.0366001"
   x2="95.574699"
   y2="46.828602"
   gradientTransform="translate(0,-1.4832874)">
	<stop
   offset="0"
   style="stop-color:#FBFBFB"
   id="stop11" />
	<stop
   offset="1"
   style="stop-color:#D6D6D6"
   id="stop13" />
</linearGradient>
<path
   d="M 84.812,45.344713 V 0.55371259 H 95.51 c 7.217,0 10.828,3.70000001 10.828,11.10100041 v 5.817 c 0,7.38 -3.606,11.069 -10.819,11.069 h -3.445 v 16.805 h -7.262 z m 7.262,-23.208 h 3.453 c 1.182,0 2.071,-0.322 2.662,-0.968 0.591,-0.645 0.889,-1.738 0.889,-3.28 v -6.715 c 0,-1.5410004 -0.298,-2.6290004 -0.889,-3.2640004 -0.591,-0.635 -1.48,-0.953 -2.662,-0.953 H 92.074 V 22.136713 z"
   id="path15"
   inkscape:connector-curvature="0"
   style="fill:url(#SVGID_2_)" />
<linearGradient
   id="SVGID_3_"
   gradientUnits="userSpaceOnUse"
   x1="168.7383"
   y1="1.5366"
   x2="168.7383"
   y2="47.328602"
   gradientTransform="translate(0,-1.4832874)">
	<stop
   offset="0"
   style="stop-color:#FBFBFB"
   id="stop18" />
	<stop
   offset="1"
   style="stop-color:#D6D6D6"
   id="stop20" />
</linearGradient>
<path
   d="m 157.963,34.599713 v -23.301 c 0,-3.5820004 0.925,-6.3510004 2.775,-8.3090004 1.852,-1.958 4.519,-2.93700001 8,-2.93700001 3.48,0 6.146,0.97900001 7.998,2.93700001 1.854,1.958 2.776,4.727 2.776,8.3090004 v 23.301 c 0,3.582 -0.923,6.352 -2.776,8.309 -1.853,1.958 -4.518,2.937 -7.998,2.937 -3.481,0 -6.148,-0.979 -8,-2.937 -1.85,-1.957 -2.775,-4.727 -2.775,-8.309 z m 7.089,0.41 c 0.021,2.934 1.255,4.411 3.701,4.432 2.469,0 3.691,-1.477 3.671,-4.432 v -24.153 c 0,-2.9330004 -1.229,-4.4000004 -3.686,-4.4000004 -2.457,0 -3.687,1.467 -3.687,4.4000004 v 24.153 z"
   id="path22"
   inkscape:connector-curvature="0"
   style="fill:url(#SVGID_3_)" />
<g
   id="g24"
   transform="translate(0,-1.4832874)">
	<linearGradient
   id="SVGID_4_"
   gradientUnits="userSpaceOnUse"
   x1="183.2383"
   y1="41.966801"
   x2="183.2383"
   y2="47.417999">
		<stop
   offset="0"
   style="stop-color:#FBFBFB"
   id="stop27" />
		<stop
   offset="1"
   style="stop-color:#D6D6D6"
   id="stop29" />
	</linearGradient>
	<path
   d="m 181.567,42.746 v -0.779 h 3.342 v 0.779 h -1.133 v 4.672 h -1.077 v -4.672 h -1.132 z"
   id="path31"
   inkscape:connector-curvature="0"
   style="fill:url(#SVGID_4_)" />
	<linearGradient
   id="SVGID_5_"
   gradientUnits="userSpaceOnUse"
   x1="187.66409"
   y1="41.966801"
   x2="187.66409"
   y2="47.417999">
		<stop
   offset="0"
   style="stop-color:#FBFBFB"
   id="stop34" />
		<stop
   offset="1"
   style="stop-color:#D6D6D6"
   id="stop36" />
	</linearGradient>
	<path
   d="m 185.368,47.418 v -5.451 h 1.498 l 0.799,3.883 0.74,-3.883 h 1.554 v 5.451 h -1.077 v -3.907 l -0.745,3.907 h -1.024 l -0.806,-3.845 v 3.845 h -0.939 z"
   id="path38"
   inkscape:connector-curvature="0"
   style="fill:url(#SVGID_5_)" />
</g>
<linearGradient
   id="SVGID_6_"
   gradientUnits="userSpaceOnUse"
   x1="119.2627"
   y1="1.5366"
   x2="119.2627"
   y2="46.828602"
   gradientTransform="translate(0,-1.4832874)">
	<stop
   offset="0"
   style="stop-color:#93C5EC"
   id="stop41" />
	<stop
   offset="1"
   style="stop-color:#7DA8C9"
   id="stop43" />
</linearGradient>
<path
   d="m 129.412,45.344713 h -21.009 v -5.497 c 0,-2.437 0.501,-4.665 1.505,-6.685 1.003,-2.02 2.213,-3.79 3.63,-5.31 l 4.246,-4.498 c 1.415,-1.458 2.613,-3.186 3.599,-5.185 0.986,-1.999 1.478,-4.196 1.478,-6.591 0,-1.9160004 -0.316,-3.2490004 -0.947,-3.9980004 -0.632,-0.75 -1.559,-1.125 -2.78,-1.125 -2.507,0 -3.759,1.468 -3.759,4.4040004 v 4.81 h -6.971 v -4.373 c 0,-3.6240004 0.938,-6.4030004 2.812,-8.3400004 1.875,-1.937 4.574,-2.90500001 8.097,-2.90500001 3.521,0 6.205,0.96800001 8.046,2.90500001 1.842,1.937 2.764,4.716 2.764,8.3400004 0,2.728 -0.542,5.3 -1.622,7.715 -1.082,2.416 -2.368,4.478 -3.856,6.185 -1.488,1.708 -2.955,3.306 -4.401,4.795 -1.445,1.488 -2.618,2.993 -3.517,4.513 -0.708,1.188 -1.062,2.343 -1.062,3.468 0,0.333 0.031,0.655 0.097,0.968 h 8.114 c -0.001,10e-4 5.686,-0.299 5.536,6.404 z"
   id="path45"
   inkscape:connector-curvature="0"
   style="fill:url(#SVGID_6_)" />
<linearGradient
   id="SVGID_7_"
   gradientUnits="userSpaceOnUse"
   x1="12.3345"
   y1="1.5366"
   x2="12.3345"
   y2="47.328602"
   gradientTransform="translate(0,-1.4832874)">
	<stop
   offset="0"
   style="stop-color:#FBFBFB"
   id="stop48" />
	<stop
   offset="1"
   style="stop-color:#D6D6D6"
   id="stop50" />
</linearGradient>
<path
   d="m 10.551,36.438713 c 0.333,2.003 1.458,3.003 3.379,3.003 h 0.029 c 2.302,0 3.454,-1.459 3.454,-4.378 0,-1.667 -0.497,-3.23 -1.491,-4.689 -0.994,-1.458 -2.181,-2.792 -3.563,-4.002 l -3.734,-3.751 c -1.542,-1.313 -2.833,-2.938 -3.874,-4.877 -1.04,-1.938 -1.56,-4.085 -1.56,-6.44 0,-3.6250004 0.981,-6.4050004 2.944,-8.3430004 1.963,-1.938 4.628,-2.90700001 7.998,-2.90700001 3.37,0 5.957,0.96800001 7.763,2.90500001 1.806,1.937 2.709,4.716 2.709,8.3400004 v 1.437 h -6.869 v -1.874 c 0,-2.9360004 -1.215,-4.4040004 -3.644,-4.4040004 -2.43,0 -3.645,1.47 -3.645,4.4090004 0,1.23 0.265,2.402 0.794,3.518 0.529,1.115 1.214,2.121 2.057,3.017 0.843,0.896 1.771,1.782 2.786,2.657 1.015,0.875 2.017,1.793 3.006,2.751 0.989,0.959 1.903,1.985 2.741,3.08 0.839,1.094 1.521,2.386 2.048,3.876 0.527,1.491 0.791,3.111 0.791,4.862 0,3.614 -0.925,6.388 -2.774,8.319 -1.849,1.933 -4.459,2.898 -7.83,2.898 -3.371,0 -6.059,-0.969 -8.062,-2.905 -1.368,-1.321 -2.139,-3.035 -2.574,-5.142 l -0.086,-0.282 H 0 v -6 c 0,0 0.136,0 5.114,0.019 0,0 4.973,-0.05 5.437,4.903"
   id="path52"
   inkscape:connector-curvature="0"
   style="fill:url(#SVGID_7_)" />
<linearGradient
   id="SVGID_8_"
   gradientUnits="userSpaceOnUse"
   x1="42.5"
   y1="2"
   x2="42.5"
   y2="47.0005"
   gradientTransform="translate(0,-1.4832874)">
	<stop
   offset="0"
   style="stop-color:#FBFBFB"
   id="stop55" />
	<stop
   offset="1"
   style="stop-color:#D6D6D6"
   id="stop57" />
</linearGradient>
<path
   d="M 42.862,32.438713 47.846,0.51671259 h 2.404 c 0,0 7.75,0.208 7.75,9.12500001 V 45.516713 h -7 v -32.282 l -4.965,32.282 H 39.15 L 34,13.747713 v 31.769 H 27 V 0.51671259 h 4.208 c 0,0 6.562,0.104 7.651,8.19100001 l 4.003,23.7310004 z"
   id="path59"
   inkscape:connector-curvature="0"
   style="fill:url(#SVGID_8_)" />
<linearGradient
   id="SVGID_9_"
   gradientUnits="userSpaceOnUse"
   x1="144"
   y1="1.5366"
   x2="144"
   y2="47.328602"
   gradientTransform="translate(0,-1.4832874)">
	<stop
   offset="0"
   style="stop-color:#FBFBFB"
   id="stop62" />
	<stop
   offset="1"
   style="stop-color:#D6D6D6"
   id="stop64" />
</linearGradient>
<path
   d="m 155,28.516713 v 6.083 c 0,3.623 -0.825,6.403 -2.732,8.34 -1.906,1.937 -4.529,2.905 -7.992,2.905 -3.465,0 -6.429,-0.969 -8.237,-2.905 -1.808,-1.936 -3.039,-4.717 -3.039,-8.34 v -23.301 c 0,-3.6240004 1.263,-6.4030004 3.071,-8.3400004 1.807,-1.937 4.624,-2.90500001 8.087,-2.90500001 3.465,0 6.113,0.96800001 8.02,2.90500001 1.907,1.937 2.822,4.716 2.822,8.3400004 v 4.218 h -7 v -4.656 c 0,-2.9360004 -1.543,-4.4040004 -4,-4.4040004 -2.456,0 -4,1.47 -4,4.4090004 v 24.199 c 0,2.897 1.549,4.356 4.016,4.377 2.446,0 3.984,-1.461 3.984,-4.384 v -8.541 h -4 v -6 h 3.835 l 1.174,0.011 c 0,0 5.991,-0.48 5.991,6.489 v 1.5 z"
   id="path66"
   inkscape:connector-curvature="0"
   style="fill:url(#SVGID_9_)" />

</svg>